<?xml version="1.0" encoding="utf-8"?>
<!-- Generator: Adobe Illustrator 15.1.0, SVG Export Plug-In . SVG Version: 6.00 Build 0)  -->
<!DOCTYPE svg PUBLIC "-//W3C//DTD SVG 1.1//EN" "http://www.w3.org/Graphics/SVG/1.1/DTD/svg11.dtd">
<svg version="1.1" id="Layer_1" xmlns="http://www.w3.org/2000/svg" xmlns:xlink="http://www.w3.org/1999/xlink" x="0px" y="0px"
	 width="551.972px" height="157.209px" viewBox="0 0 551.972 157.209" enable-background="new 0 0 551.972 157.209"
	 xml:space="preserve">
<g>
	<path fill="#E11F21" d="M127.655,72.226L14.665,1.576c-1.234-0.771-2.637-1.159-4.042-1.159c-1.271,0-2.543,0.317-3.695,0.955
		C4.504,2.715,3,5.269,3,8.041v141.546c0,2.775,1.505,5.328,3.933,6.672c1.15,0.635,2.421,0.951,3.69,0.951
		c1.409,0,2.815-0.389,4.052-1.164l112.99-70.898c2.224-1.395,3.573-3.836,3.572-6.464
		C131.235,76.058,129.881,73.617,127.655,72.226z"/>
	<path fill="#FFFFFF" d="M97.523,75.659h-6.009v-6.788c0-1.169-0.948-2.117-2.117-2.117c-1.17,0-2.117,0.948-2.117,2.117v6.788
		h-3.081v-6.788c0-1.169-0.947-2.117-2.117-2.117s-2.119,0.948-2.119,2.117v6.788h-3.079v-6.788c0-1.169-0.948-2.117-2.117-2.117
		c-1.17,0-2.119,0.948-2.119,2.117v6.788H32.772l18.48-6.725c1.539-0.561,2.332-2.263,1.771-3.801
		c-0.56-1.538-2.261-2.332-3.8-1.771l-18.335,6.674l28.144-23.614c1.255-1.052,1.416-2.922,0.365-4.176
		c-1.052-1.255-2.923-1.419-4.175-0.366L27.439,65.191l11.133-19.287c0.819-1.416,0.334-3.23-1.085-4.049
		c-1.417-0.818-3.23-0.332-4.048,1.085L13.882,76.811c-0.062,0.107-0.115,0.218-0.162,0.331c-0.038,0.073-0.069,0.149-0.101,0.227
		c-0.018,0.047-0.034,0.093-0.049,0.14c-0.116,0.331-0.172,0.685-0.167,1.043c-0.004,0.356,0.053,0.703,0.167,1.032
		c0.014,0.046,0.031,0.091,0.048,0.136c0.031,0.075,0.06,0.15,0.098,0.225c0.053,0.129,0.118,0.258,0.191,0.381l19.529,33.826
		c0.549,0.949,1.546,1.482,2.57,1.482c0.503,0,1.014-0.129,1.48-0.398c1.417-0.818,1.903-2.631,1.085-4.049L27.441,91.905
		l27.78,23.307c0.555,0.469,1.231,0.693,1.904,0.693c0.846,0,1.687-0.359,2.273-1.059c1.052-1.254,0.888-3.125-0.366-4.176
		L30.889,87.057l18.336,6.672c0.335,0.123,0.677,0.18,1.014,0.18c1.211,0,2.347-0.748,2.785-1.949
		c0.56-1.539-0.234-3.242-1.771-3.801l-18.049-6.57h39.444v6.789c0,1.17,0.949,2.119,2.119,2.119c1.168,0,2.117-0.949,2.117-2.119
		v-6.789h3.079v6.789c0,1.17,0.949,2.119,2.119,2.119s2.117-0.949,2.117-2.119v-6.789h3.081v6.789c0,1.17,0.947,2.119,2.117,2.119
		c1.169,0,2.117-0.949,2.117-2.119v-6.789h6.009c1.638,0,2.966-1.328,2.966-2.965C100.489,76.986,99.161,75.659,97.523,75.659z"/>
</g>
<g>
	<path fill="#1E2522" d="M208.939,60.934h0.042c0,2.023-0.712,3.747-2.137,5.172c-1.426,1.424-3.149,2.137-5.172,2.137
		c-2.052,0-3.783-0.706-5.193-2.116c-1.41-1.411-2.116-3.142-2.116-5.193v-7.266c0-4.103-1.404-7.565-4.21-10.387
		c-2.808-2.821-6.262-4.231-10.365-4.231c-4.131,0-7.593,1.405-10.386,4.214c-2.793,2.81-4.189,6.283-4.189,10.418v29.18h26.5
		c2.421,0,3.633,1.211,3.633,3.631c0,2.424-1.211,3.635-3.633,3.635h-26.5v21.885c0,2.021-0.712,3.744-2.136,5.17
		c-1.425,1.426-3.149,2.139-5.172,2.139c-2.051,0-3.783-0.707-5.193-2.117c-1.411-1.41-2.116-3.141-2.116-5.191V60.934
		c0-8.234,2.806-15.151,8.42-20.751c5.614-5.6,12.538-8.398,20.773-8.398c8.092,0,14.974,2.807,20.645,8.42
		c5.669,5.614,8.505,12.467,8.505,20.559V60.934z"/>
	<path fill="#1E2522" d="M220.23,31.784c2.052,0,3.782,0.707,5.193,2.122c1.411,1.415,2.115,3.136,2.115,5.165
		s-0.712,3.758-2.136,5.187c-1.426,1.43-3.149,2.143-5.172,2.143c-2.024,0-3.748-0.713-5.172-2.143
		c-1.425-1.429-2.137-3.158-2.137-5.187c0-2.058,0.705-3.787,2.116-5.188C216.448,32.484,218.179,31.784,220.23,31.784z
		 M220.23,53.667c2.052,0,3.782,0.706,5.193,2.116c1.411,1.41,2.115,3.127,2.115,5.15v51.079c0,2.021-0.712,3.744-2.136,5.17
		c-1.426,1.426-3.149,2.139-5.172,2.139c-2.024,0-3.748-0.713-5.172-2.139c-1.425-1.426-2.137-3.148-2.137-5.17V60.934
		c0-2.051,0.705-3.776,2.116-5.172C216.448,54.366,218.179,53.667,220.23,53.667z"/>
	<path fill="#1E2522" d="M262.686,53.667c8.206,0,15.122,2.809,20.753,8.427c5.625,5.617,8.439,12.532,8.439,20.746v29.213
		c0,2.012-0.713,3.727-2.137,5.143c-1.426,1.416-3.148,2.125-5.17,2.125c-3.166,0-5.387-1.439-6.67-4.318
		c-4.645,2.879-9.717,4.318-15.216,4.318c-8.263,0-15.195-2.801-20.794-8.398c-5.599-5.602-8.398-12.531-8.398-20.795v-7.309
		c0-8.236,2.807-15.153,8.42-20.752C247.526,56.467,254.45,53.667,262.686,53.667z M277.261,97.467V75.563
		c0-4.106-1.404-7.57-4.211-10.394c-2.807-2.823-6.261-4.236-10.364-4.236c-4.131,0-7.593,1.406-10.387,4.214
		c-2.792,2.809-4.188,6.281-4.188,10.416v21.904c0,4.135,1.396,7.602,4.188,10.395c2.793,2.795,6.255,4.191,10.387,4.191
		c4.103,0,7.558-1.404,10.364-4.213S277.261,101.573,277.261,97.467z"/>
	<path fill="#1E2522" d="M312.671,112.012c0,2.021-0.713,3.744-2.137,5.17c-1.428,1.426-3.148,2.139-5.174,2.139
		c-2.051,0-3.781-0.707-5.193-2.117c-1.41-1.41-2.115-3.141-2.115-5.191V82.647c0-8.178,2.822-15.052,8.465-20.623
		c5.641-5.571,12.551-8.356,20.729-8.356c8.207,0,15.123,2.807,20.75,8.42c5.629,5.614,8.443,12.524,8.443,20.731v29.193
		c0,2.021-0.713,3.744-2.137,5.17c-1.426,1.426-3.15,2.139-5.174,2.139c-2.051,0-3.781-0.707-5.191-2.117s-2.117-3.141-2.117-5.191
		v-36.46c0-4.104-1.404-7.565-4.209-10.386c-2.807-2.822-6.262-4.232-10.365-4.232c-4.131,0-7.594,1.404-10.387,4.21
		c-2.793,2.807-4.188,6.277-4.188,10.408V112.012z"/>
	<path fill="#1E2522" d="M369.585,31.784c2.053,0,3.783,0.707,5.195,2.122c1.41,1.415,2.113,3.136,2.113,5.165
		s-0.711,3.758-2.137,5.187c-1.424,1.43-3.148,2.143-5.172,2.143c-2.021,0-3.746-0.713-5.17-2.143
		c-1.426-1.429-2.137-3.158-2.137-5.187c0-2.058,0.703-3.787,2.115-5.188C365.804,32.484,367.534,31.784,369.585,31.784z
		 M369.585,53.667c2.053,0,3.783,0.706,5.195,2.116c1.41,1.41,2.113,3.127,2.113,5.15v51.079c0,2.021-0.711,3.744-2.137,5.17
		c-1.424,1.426-3.148,2.139-5.172,2.139c-2.021,0-3.746-0.713-5.17-2.139c-1.426-1.426-2.137-3.148-2.137-5.17V60.934
		c0-2.051,0.703-3.776,2.115-5.172C365.804,54.366,367.534,53.667,369.585,53.667z"/>
	<path fill="#1E2522" d="M397.468,97.436c0,4.131,1.395,7.594,4.189,10.387c2.791,2.793,6.252,4.189,10.385,4.189
		c4.102,0,7.559-1.404,10.363-4.211c2.809-2.807,4.211-6.262,4.211-10.365V60.934c0-2.051,0.705-3.776,2.117-5.172
		c1.41-1.396,3.141-2.094,5.193-2.094c2.051,0,3.781,0.706,5.191,2.116c1.412,1.41,2.117,3.127,2.117,5.15v29.194
		c0,8.236-2.807,15.158-8.42,20.771c-5.615,5.615-12.539,8.422-20.773,8.422c-8.15,0-15.053-2.801-20.709-8.398
		c-5.656-5.602-8.484-12.461-8.484-20.582V60.934c0-2.051,0.705-3.776,2.117-5.172c1.41-1.396,3.141-2.094,5.191-2.094
		c2.053,0,3.783,0.706,5.193,2.116s2.117,3.127,2.117,5.15V97.436z"/>
	<path fill="#1E2522" d="M462.067,112.012c0,2.021-0.711,3.744-2.135,5.17c-1.426,1.426-3.148,2.139-5.172,2.139
		c-2.025,0-3.748-0.713-5.172-2.139c-1.426-1.426-2.139-3.148-2.139-5.17V82.647c0-8.178,2.822-15.052,8.465-20.623
		c5.641-5.571,12.551-8.356,20.729-8.356c8.664,0,15.957,3.306,21.885,9.917c5.813-6.611,13.107-9.917,21.885-9.917
		c8.234,0,15.156,2.799,20.773,8.399c5.611,5.599,8.418,12.516,8.418,20.752v29.193c0,2.021-0.711,3.744-2.137,5.17
		s-3.148,2.139-5.172,2.139s-3.748-0.713-5.172-2.139s-2.137-3.148-2.137-5.17v-36.46c0-4.131-1.396-7.601-4.189-10.408
		c-2.793-2.806-6.254-4.21-10.385-4.21s-7.596,1.404-10.387,4.21c-2.793,2.807-4.189,6.277-4.189,10.408v36.46
		c0,3.959-1.951,6.338-5.855,7.137c-0.57,0.115-1.055,0.172-1.453,0.172c-2.023,0-3.746-0.713-5.172-2.139s-2.137-3.148-2.137-5.17
		v-36.46c0-4.131-1.396-7.601-4.188-10.408c-2.795-2.806-6.256-4.21-10.389-4.21c-4.131,0-7.594,1.404-10.387,4.21
		c-2.793,2.807-4.189,6.277-4.189,10.408V112.012z"/>
</g>
</svg>
