<?xml version="1.0" encoding="utf-8"?>
<!-- Generator: Adobe Illustrator 15.1.0, SVG Export Plug-In . SVG Version: 6.00 Build 0)  -->
<!DOCTYPE svg PUBLIC "-//W3C//DTD SVG 1.1//EN" "http://www.w3.org/Graphics/SVG/1.1/DTD/svg11.dtd">
<svg version="1.1" id="Layer_1" xmlns="http://www.w3.org/2000/svg" xmlns:xlink="http://www.w3.org/1999/xlink" x="0px" y="0px"
	 width="33px" height="41px" viewBox="0 0 33 41" enable-background="new 0 0 33 41" xml:space="preserve">
<path fill="#454545" d="M31.881,18.365L2.984,0.297C2.668,0.1,2.31,0,1.95,0C1.625,0,1.299,0.082,1.004,0.245
	C0.384,0.588,0,1.241,0,1.95v36.2c0,0.71,0.384,1.363,1.006,1.706C1.3,40.018,1.625,40.1,1.95,40.1c0.36,0,0.719-0.1,1.037-0.298
	L31.883,21.67c0.568-0.356,0.914-0.981,0.914-1.653C32.797,19.346,32.45,18.721,31.881,18.365z M24.174,20.76h-1.536v1.735
	c0,0.301-0.243,0.543-0.542,0.543c-0.3,0-0.542-0.242-0.542-0.543V20.76h-0.787v1.735c0,0.301-0.242,0.543-0.542,0.543
	c-0.299,0-0.542-0.242-0.542-0.543V20.76h-0.787v1.735c0,0.301-0.243,0.543-0.541,0.543c-0.3,0-0.542-0.242-0.542-0.543V20.76H7.725
	l4.616,1.68c0.393,0.144,0.596,0.579,0.453,0.973c-0.112,0.308-0.403,0.498-0.712,0.498c-0.086,0-0.174-0.014-0.26-0.045
	l-4.688-1.707l7.197,6.039c0.321,0.269,0.363,0.747,0.093,1.067c-0.149,0.179-0.364,0.271-0.581,0.271
	c-0.172,0-0.346-0.059-0.486-0.178L6.25,23.397l2.848,4.932c0.209,0.362,0.085,0.826-0.278,1.035
	c-0.12,0.069-0.25,0.102-0.378,0.102c-0.262,0-0.517-0.136-0.657-0.378L2.79,20.437c-0.019-0.032-0.035-0.065-0.048-0.099
	c-0.009-0.018-0.018-0.037-0.025-0.057c-0.005-0.012-0.009-0.021-0.013-0.033c-0.029-0.084-0.043-0.174-0.042-0.265
	c-0.001-0.092,0.013-0.182,0.042-0.267c0.004-0.012,0.008-0.024,0.013-0.036c0.007-0.02,0.016-0.039,0.025-0.058
	c0.013-0.029,0.026-0.057,0.042-0.085l5.002-8.662c0.209-0.363,0.673-0.487,1.035-0.278c0.363,0.209,0.487,0.673,0.278,1.035
	L6.25,16.567l7.105-5.963c0.319-0.269,0.798-0.227,1.067,0.093c0.27,0.321,0.229,0.8-0.093,1.068l-7.197,6.04l4.688-1.708
	c0.394-0.143,0.83,0.059,0.973,0.453c0.143,0.393-0.061,0.828-0.453,0.973l-4.727,1.719h10.198v-1.736
	c0-0.299,0.242-0.542,0.542-0.542c0.298,0,0.541,0.243,0.541,0.542v1.736h0.787v-1.736c0-0.299,0.243-0.542,0.542-0.542
	c0.3,0,0.542,0.243,0.542,0.542v1.736h0.787v-1.736c0-0.299,0.242-0.542,0.542-0.542c0.299,0,0.542,0.243,0.542,0.542v1.736h1.536
	c0.419,0,0.759,0.339,0.759,0.759C24.933,20.42,24.593,20.76,24.174,20.76z"/>
</svg>
